<svg xmlns="http://www.w3.org/2000/svg" width="1400" height="820" viewBox="0 0 1400 820">
  <defs>
    <filter id="softShadow" x="-10%" y="-10%" width="120%" height="130%">
      <feDropShadow dx="0" dy="6" stdDeviation="8" flood-color="#0F172A" flood-opacity="0.14"/>
    </filter>
    <marker id="arrow" markerWidth="10" markerHeight="10" refX="9" refY="5" orient="auto">
      <path d="M1,1 L9,5 L1,9 Z" fill="#475569"/>
    </marker>
  </defs>
  <rect width="100%" height="100%" rx="18" fill="#FFFFFF"/>
  <rect x="34" y="30" width="1332" height="760" rx="24" fill="#FFFFFF" stroke="#CBD5E1"/>
<text x="70" y="86" text-anchor="start" font-family="Arial Narrow, Arial, sans-serif" font-size="34" font-weight="850" fill="#111827">Risiko- und Entscheidungslandkarte</text>
<text x="70" y="120" text-anchor="start" font-family="Arial Narrow, Arial, sans-serif" font-size="20" font-weight="550" fill="#64748B">Die wichtigsten Risiken sind steuerbar, wenn sie früh als Managementthemen behandelt werden.</text>
<rect x="240" y="630" width="120" height="120" fill="#DCFCE7" stroke="#FFFFFF" stroke-width="3"/>
<rect x="360" y="630" width="120" height="120" fill="#DCFCE7" stroke="#FFFFFF" stroke-width="3"/>
<rect x="480" y="630" width="120" height="120" fill="#ECFCCB" stroke="#FFFFFF" stroke-width="3"/>
<rect x="600" y="630" width="120" height="120" fill="#ECFCCB" stroke="#FFFFFF" stroke-width="3"/>
<rect x="720" y="630" width="120" height="120" fill="#FEF3C7" stroke="#FFFFFF" stroke-width="3"/>
<rect x="240" y="510" width="120" height="120" fill="#ECFCCB" stroke="#FFFFFF" stroke-width="3"/>
<rect x="360" y="510" width="120" height="120" fill="#ECFCCB" stroke="#FFFFFF" stroke-width="3"/>
<rect x="480" y="510" width="120" height="120" fill="#FEF3C7" stroke="#FFFFFF" stroke-width="3"/>
<rect x="600" y="510" width="120" height="120" fill="#FEF3C7" stroke="#FFFFFF" stroke-width="3"/>
<rect x="720" y="510" width="120" height="120" fill="#FFEDD5" stroke="#FFFFFF" stroke-width="3"/>
<rect x="240" y="390" width="120" height="120" fill="#FEF3C7" stroke="#FFFFFF" stroke-width="3"/>
<rect x="360" y="390" width="120" height="120" fill="#FEF3C7" stroke="#FFFFFF" stroke-width="3"/>
<rect x="480" y="390" width="120" height="120" fill="#FFEDD5" stroke="#FFFFFF" stroke-width="3"/>
<rect x="600" y="390" width="120" height="120" fill="#FFEDD5" stroke="#FFFFFF" stroke-width="3"/>
<rect x="720" y="390" width="120" height="120" fill="#FFE4E6" stroke="#FFFFFF" stroke-width="3"/>
<rect x="240" y="270" width="120" height="120" fill="#FFEDD5" stroke="#FFFFFF" stroke-width="3"/>
<rect x="360" y="270" width="120" height="120" fill="#FFEDD5" stroke="#FFFFFF" stroke-width="3"/>
<rect x="480" y="270" width="120" height="120" fill="#FFE4E6" stroke="#FFFFFF" stroke-width="3"/>
<rect x="600" y="270" width="120" height="120" fill="#FFE4E6" stroke="#FFFFFF" stroke-width="3"/>
<rect x="720" y="270" width="120" height="120" fill="#FFE4E6" stroke="#FFFFFF" stroke-width="3"/>
<rect x="240" y="150" width="120" height="120" fill="#FFE4E6" stroke="#FFFFFF" stroke-width="3"/>
<rect x="360" y="150" width="120" height="120" fill="#FFE4E6" stroke="#FFFFFF" stroke-width="3"/>
<rect x="480" y="150" width="120" height="120" fill="#FFE4E6" stroke="#FFFFFF" stroke-width="3"/>
<rect x="600" y="150" width="120" height="120" fill="#FFE4E6" stroke="#FFFFFF" stroke-width="3"/>
<rect x="720" y="150" width="120" height="120" fill="#FFE4E6" stroke="#FFFFFF" stroke-width="3"/>
<text x="540" y="792" text-anchor="middle" font-family="Arial Narrow, Arial, sans-serif" font-size="21" font-weight="800" fill="#334155">Auswirkung</text>
<text x="145" y="450" text-anchor="middle" font-family="Arial Narrow, Arial, sans-serif" font-size="21" font-weight="800" fill="#334155">Eintrittswahrscheinlichkeit</text>
<circle cx="420.0" cy="210.0" r="34" fill="#F59E0B" filter="url(#softShadow)"/>
<text x="420.0" y="215.0" text-anchor="middle" font-family="Arial Narrow, Arial, sans-serif" font-size="14" font-weight="850" fill="#FFFFFF">Datenqualität</text>
<circle cx="660.0" cy="210.0" r="34" fill="#E11D48" filter="url(#softShadow)"/>
<text x="660.0" y="215.0" text-anchor="middle" font-family="Arial Narrow, Arial, sans-serif" font-size="14" font-weight="850" fill="#FFFFFF">Finanzlogik</text>
<circle cx="540.0" cy="330.0" r="34" fill="#7C3AED" filter="url(#softShadow)"/>
<text x="540.0" y="335.0" text-anchor="middle" font-family="Arial Narrow, Arial, sans-serif" font-size="14" font-weight="850" fill="#FFFFFF">Akzeptanz</text>
<circle cx="780.0" cy="450.0" r="34" fill="#2563EB" filter="url(#softShadow)"/>
<text x="780.0" y="455.0" text-anchor="middle" font-family="Arial Narrow, Arial, sans-serif" font-size="14" font-weight="850" fill="#FFFFFF">Integrationen</text>
<circle cx="420.0" cy="450.0" r="34" fill="#0F766E" filter="url(#softShadow)"/>
<text x="420.0" y="455.0" text-anchor="middle" font-family="Arial Narrow, Arial, sans-serif" font-size="14" font-weight="850" fill="#FFFFFF">KVKK</text>
<circle cx="660.0" cy="570.0" r="34" fill="#16A34A" filter="url(#softShadow)"/>
<text x="660.0" y="575.0" text-anchor="middle" font-family="Arial Narrow, Arial, sans-serif" font-size="14" font-weight="850" fill="#FFFFFF">Umfang</text>
<rect x="920" y="201" width="310" height="54" rx="14" fill="#F8FAFC" stroke="#CBD5E1"/>
<circle cx="948" cy="228" r="12" fill="#E11D48"/>
<text x="975" y="235" text-anchor="start" font-family="Arial Narrow, Arial, sans-serif" font-size="18" font-weight="700" fill="#334155">Vor Projektstart klären</text>
<rect x="920" y="285" width="310" height="54" rx="14" fill="#F8FAFC" stroke="#CBD5E1"/>
<circle cx="948" cy="312" r="12" fill="#F59E0B"/>
<text x="975" y="319" text-anchor="start" font-family="Arial Narrow, Arial, sans-serif" font-size="18" font-weight="700" fill="#334155">In Start-Freigaben prüfen</text>
<rect x="920" y="369" width="310" height="54" rx="14" fill="#F8FAFC" stroke="#CBD5E1"/>
<circle cx="948" cy="396" r="12" fill="#16A34A"/>
<text x="975" y="403" text-anchor="start" font-family="Arial Narrow, Arial, sans-serif" font-size="18" font-weight="700" fill="#334155">Im Betrieb überwachen</text>
<rect x="920" y="500" width="330" height="126" rx="18" fill="#F8FAFC" stroke="#CBD5E1"/>
<text x="944" y="540" text-anchor="start" font-family="Arial Narrow, Arial, sans-serif" font-size="22" font-weight="850" fill="#111827">Management-Hinweis</text>
<text x="944" y="578" text-anchor="start" font-family="Arial Narrow, Arial, sans-serif" font-size="17" font-weight="600" fill="#334155">Risiken sind keine Blocker. Sie</text>
<text x="944" y="599" text-anchor="start" font-family="Arial Narrow, Arial, sans-serif" font-size="17" font-weight="600" fill="#334155">werden zu Blockern, wenn</text>
<text x="944" y="620" text-anchor="start" font-family="Arial Narrow, Arial, sans-serif" font-size="17" font-weight="600" fill="#334155">Eigentümer, Regeln und</text>
<text x="944" y="641" text-anchor="start" font-family="Arial Narrow, Arial, sans-serif" font-size="17" font-weight="600" fill="#334155">Datenqualität ungeklärt bleiben.</text>
</svg>