<?xml version="1.0" encoding="UTF-8"?>
<svg xmlns="http://www.w3.org/2000/svg" width="1484" height="822" viewBox="0 0 1484 822">
  <defs>
    <marker id="arrow" markerWidth="10" markerHeight="10" refX="9" refY="5" orient="auto">
      <path d="M2,2 L9,5 L2,8 Z" fill="#5F6368"/>
    </marker>
  </defs>
  <rect width="100%" height="100%" fill="#FFFFFF"/>
  <rect x="24" y="24" width="1436" height="774" rx="8" fill="#FFFFFF" stroke="#D9D9D9"/>
  
    <text x="70" y="82" font-size="34" font-weight="800" fill="#000000" font-family="Arial Narrow, Arial, sans-serif">Product Module Interaction Model</text>
    <text x="70" y="114" font-size="18" fill="#5F6368" font-family="Arial Narrow, Arial, sans-serif">Professional workflow map with decisions, branches and audit-relevant handoffs</text>
    <line x1="80" y1="144" x2="1404" y2="144" stroke="#E6E6E6" stroke-width="1"/>
      <text x="80" y="134" font-size="16" font-weight="700" fill="#5F6368" font-family="Arial Narrow, Arial, sans-serif">Trigger and control</text>
<line x1="80" y1="302" x2="1404" y2="302" stroke="#E6E6E6" stroke-width="1"/>
      <text x="80" y="292" font-size="16" font-weight="700" fill="#5F6368" font-family="Arial Narrow, Arial, sans-serif">Decision and execution</text>
<line x1="80" y1="460" x2="1404" y2="460" stroke="#E6E6E6" stroke-width="1"/>
      <text x="80" y="450" font-size="16" font-weight="700" fill="#5F6368" font-family="Arial Narrow, Arial, sans-serif">Outcome and exception</text>
<line x1="80" y1="618" x2="1404" y2="618" stroke="#E6E6E6" stroke-width="1"/>
      <text x="80" y="608" font-size="16" font-weight="700" fill="#5F6368" font-family="Arial Narrow, Arial, sans-serif">Closure and audit</text>
    <path d="M394,218 L414,218" fill="none" stroke="#8C8C8C" stroke-width="2" marker-end="url(#arrow)"/>
<path d="M730,218 L750,218" fill="none" stroke="#8C8C8C" stroke-width="2" marker-end="url(#arrow)"/>
<path d="M1066,218 L1086,218" fill="none" stroke="#8C8C8C" stroke-width="2" marker-end="url(#arrow)"/>
<path d="M1246,269 L1246,292 L238,292 L238,320" fill="none" stroke="#8C8C8C" stroke-width="2" marker-end="url(#arrow)"/>
<path d="M1246,269 L1246,292 L574,292 L574,320" fill="none" stroke="#8C8C8C" stroke-width="2" marker-end="url(#arrow)"/>
<path d="M1246,269 L1246,292 L910,292 L910,320" fill="none" stroke="#8C8C8C" stroke-width="2" marker-end="url(#arrow)"/>
<path d="M394,376 L1086,376" fill="none" stroke="#8C8C8C" stroke-width="2" marker-end="url(#arrow)"/>
<path d="M574,427 L574,450 L238,450 L238,478" fill="none" stroke="#8C8C8C" stroke-width="2" marker-end="url(#arrow)"/>
<path d="M1246,427 L1246,450 L574,450 L574,478" fill="none" stroke="#8C8C8C" stroke-width="2" marker-end="url(#arrow)"/>
<path d="M394,534 L750,534" fill="none" stroke="#8C8C8C" stroke-width="2" marker-end="url(#arrow)"/>
<path d="M910,427 L910,450 L1246,450 L1246,478" fill="none" stroke="#8C8C8C" stroke-width="2" marker-end="url(#arrow)"/>
<path d="M574,585 L574,608 L238,608 L238,636" fill="none" stroke="#8C8C8C" stroke-width="2" marker-end="url(#arrow)"/>
<path d="M910,585 L910,608 L574,608 L574,162" fill="none" stroke="#8C8C8C" stroke-width="2" marker-end="url(#arrow)"/>
<path d="M1246,585 L1246,608 L574,608 L574,636" fill="none" stroke="#8C8C8C" stroke-width="2" marker-end="url(#arrow)"/>
<path d="M394,692 L414,692" fill="none" stroke="#8C8C8C" stroke-width="2" marker-end="url(#arrow)"/>
    
        <rect x="88" y="172" width="300" height="92" rx="4" fill="#FFFFFF" stroke="#BFBFBF"/>
        <rect x="102" y="192" width="20" height="20" rx="2" fill="#FFFFFF" stroke="#5F6368"/>
        <text x="132" y="206" font-size="14" font-weight="800" fill="#5F6368" font-family="Arial Narrow, Arial, sans-serif">STEP 01</text>
        <text class="" x="104" y="236" text-anchor="start" font-size="18" font-weight="700" fill="#111111" font-family="Arial Narrow, Arial, sans-serif">Flat and user relationship</text>
      

        <rect x="424" y="172" width="300" height="92" rx="4" fill="#FFFFFF" stroke="#BFBFBF"/>
        <rect x="438" y="192" width="20" height="20" rx="2" fill="#FFFFFF" stroke="#5F6368"/>
        <text x="468" y="206" font-size="14" font-weight="800" fill="#5F6368" font-family="Arial Narrow, Arial, sans-serif">STEP 02</text>
        <text class="" x="440" y="236" text-anchor="start" font-size="18" font-weight="700" fill="#111111" font-family="Arial Narrow, Arial, sans-serif">Account and ledger</text>
      

        <rect x="760" y="172" width="300" height="92" rx="4" fill="#FFFFFF" stroke="#BFBFBF"/>
        <rect x="774" y="192" width="20" height="20" rx="2" fill="#FFFFFF" stroke="#5F6368"/>
        <text x="804" y="206" font-size="14" font-weight="800" fill="#5F6368" font-family="Arial Narrow, Arial, sans-serif">STEP 03</text>
        <text class="" x="776" y="236" text-anchor="start" font-size="18" font-weight="700" fill="#111111" font-family="Arial Narrow, Arial, sans-serif">Debt status</text>
      

        <rect x="1096" y="172" width="300" height="92" rx="4" fill="#FFFFFF" stroke="#BFBFBF"/>
        <rect x="1110" y="192" width="20" height="20" rx="2" fill="#FFFFFF" stroke="#5F6368"/>
        <text x="1140" y="206" font-size="14" font-weight="800" fill="#5F6368" font-family="Arial Narrow, Arial, sans-serif">STEP 04</text>
        <text class="" x="1112" y="236" text-anchor="start" font-size="18" font-weight="700" fill="#111111" font-family="Arial Narrow, Arial, sans-serif">Restriction rules</text>
      

        <rect x="88" y="330" width="300" height="92" rx="4" fill="#FFFFFF" stroke="#BFBFBF"/>
        <rect x="102" y="350" width="20" height="20" rx="2" fill="#FFFFFF" stroke="#5F6368"/>
        <text x="132" y="364" font-size="14" font-weight="800" fill="#5F6368" font-family="Arial Narrow, Arial, sans-serif">STEP 05</text>
        <text class="" x="104" y="394" text-anchor="start" font-size="18" font-weight="700" fill="#111111" font-family="Arial Narrow, Arial, sans-serif">Service order decision</text>
      

        <rect x="424" y="330" width="300" height="92" rx="4" fill="#FFFFFF" stroke="#BFBFBF"/>
        <rect x="438" y="350" width="20" height="20" rx="2" fill="#FFFFFF" stroke="#5F6368"/>
        <text x="468" y="364" font-size="14" font-weight="800" fill="#5F6368" font-family="Arial Narrow, Arial, sans-serif">STEP 06</text>
        <text class="" x="440" y="394" text-anchor="start" font-size="18" font-weight="700" fill="#111111" font-family="Arial Narrow, Arial, sans-serif">Booking decision</text>
      

        <rect x="760" y="330" width="300" height="92" rx="4" fill="#FFFFFF" stroke="#BFBFBF"/>
        <rect x="774" y="350" width="20" height="20" rx="2" fill="#FFFFFF" stroke="#5F6368"/>
        <text x="804" y="364" font-size="14" font-weight="800" fill="#5F6368" font-family="Arial Narrow, Arial, sans-serif">STEP 07</text>
        <text class="" x="776" y="394" text-anchor="start" font-size="18" font-weight="700" fill="#111111" font-family="Arial Narrow, Arial, sans-serif">Access action request</text>
      

        <rect x="1096" y="330" width="300" height="92" rx="4" fill="#FFFFFF" stroke="#BFBFBF"/>
        <rect x="1110" y="350" width="20" height="20" rx="2" fill="#FFFFFF" stroke="#5F6368"/>
        <text x="1140" y="364" font-size="14" font-weight="800" fill="#5F6368" font-family="Arial Narrow, Arial, sans-serif">STEP 08</text>
        <text class="" x="1112" y="394" text-anchor="start" font-size="18" font-weight="700" fill="#111111" font-family="Arial Narrow, Arial, sans-serif">Ticket and task</text>
      

        <rect x="88" y="488" width="300" height="92" rx="4" fill="#FFFFFF" stroke="#BFBFBF"/>
        <rect x="102" y="508" width="20" height="20" rx="2" fill="#FFFFFF" stroke="#5F6368"/>
        <text x="132" y="522" font-size="14" font-weight="800" fill="#5F6368" font-family="Arial Narrow, Arial, sans-serif">STEP 09</text>
        <text class="" x="104" y="552" text-anchor="start" font-size="18" font-weight="700" fill="#111111" font-family="Arial Narrow, Arial, sans-serif">Move-in or checkout workflow</text>
      

        <rect x="424" y="488" width="300" height="92" rx="4" fill="#FFFFFF" stroke="#BFBFBF"/>
        <rect x="438" y="508" width="20" height="20" rx="2" fill="#FFFFFF" stroke="#5F6368"/>
        <text x="468" y="522" font-size="14" font-weight="800" fill="#5F6368" font-family="Arial Narrow, Arial, sans-serif">STEP 10</text>
        <text class="" x="440" y="552" text-anchor="start" font-size="18" font-weight="700" fill="#111111" font-family="Arial Narrow, Arial, sans-serif">Staff completion report</text>
      

        <rect x="760" y="488" width="300" height="92" rx="4" fill="#FFFFFF" stroke="#BFBFBF"/>
        <rect x="774" y="508" width="20" height="20" rx="2" fill="#FFFFFF" stroke="#5F6368"/>
        <text x="804" y="522" font-size="14" font-weight="800" fill="#5F6368" font-family="Arial Narrow, Arial, sans-serif">STEP 11</text>
        <text class="" x="776" y="552" text-anchor="start" font-size="18" font-weight="700" fill="#111111" font-family="Arial Narrow, Arial, sans-serif">Deposit settlement</text>
      

        <rect x="1096" y="488" width="300" height="92" rx="4" fill="#FFFFFF" stroke="#BFBFBF"/>
        <rect x="1110" y="508" width="20" height="20" rx="2" fill="#FFFFFF" stroke="#5F6368"/>
        <text x="1140" y="522" font-size="14" font-weight="800" fill="#5F6368" font-family="Arial Narrow, Arial, sans-serif">STEP 12</text>
        <text class="" x="1112" y="552" text-anchor="start" font-size="18" font-weight="700" fill="#111111" font-family="Arial Narrow, Arial, sans-serif">Integration event</text>
      

        <rect x="88" y="646" width="300" height="92" rx="4" fill="#FFFFFF" stroke="#BFBFBF"/>
        <rect x="102" y="666" width="20" height="20" rx="2" fill="#FFFFFF" stroke="#5F6368"/>
        <text x="132" y="680" font-size="14" font-weight="800" fill="#5F6368" font-family="Arial Narrow, Arial, sans-serif">STEP 13</text>
        <text class="" x="104" y="710" text-anchor="start" font-size="18" font-weight="700" fill="#111111" font-family="Arial Narrow, Arial, sans-serif">Resident communication</text>
      

        <rect x="424" y="646" width="300" height="92" rx="4" fill="#FFFFFF" stroke="#BFBFBF"/>
        <rect x="438" y="666" width="20" height="20" rx="2" fill="#FFFFFF" stroke="#5F6368"/>
        <text x="468" y="680" font-size="14" font-weight="800" fill="#5F6368" font-family="Arial Narrow, Arial, sans-serif">STEP 14</text>
        <text class="" x="440" y="710" text-anchor="start" font-size="18" font-weight="700" fill="#111111" font-family="Arial Narrow, Arial, sans-serif">Audit log</text>
      
</svg>