<?xml version="1.0" encoding="UTF-8"?>
<svg xmlns="http://www.w3.org/2000/svg" width="1328" height="664" viewBox="0 0 1328 664">
  <defs>
    <marker id="arrow" markerWidth="10" markerHeight="10" refX="9" refY="5" orient="auto">
      <path d="M2,2 L9,5 L2,8 Z" fill="#5F6368"/>
    </marker>
  </defs>
  <rect width="100%" height="100%" fill="#FFFFFF"/>
  <rect x="24" y="24" width="1280" height="616" rx="8" fill="#FFFFFF" stroke="#D9D9D9"/>
  
    <text x="70" y="82" font-size="34" font-weight="800" fill="#000000" font-family="Arial Narrow, Arial, sans-serif">Traceability Flow</text>
    <text x="70" y="114" font-size="18" fill="#5F6368" font-family="Arial Narrow, Arial, sans-serif">Professional workflow map with decisions, branches and audit-relevant handoffs</text>
    <line x1="80" y1="144" x2="1248" y2="144" stroke="#E6E6E6" stroke-width="1"/>
      <text x="80" y="134" font-size="16" font-weight="700" fill="#5F6368" font-family="Arial Narrow, Arial, sans-serif">Trigger and control</text>
<line x1="80" y1="302" x2="1248" y2="302" stroke="#E6E6E6" stroke-width="1"/>
      <text x="80" y="292" font-size="16" font-weight="700" fill="#5F6368" font-family="Arial Narrow, Arial, sans-serif">Decision and execution</text>
<line x1="80" y1="460" x2="1248" y2="460" stroke="#E6E6E6" stroke-width="1"/>
      <text x="80" y="450" font-size="16" font-weight="700" fill="#5F6368" font-family="Arial Narrow, Arial, sans-serif">Outcome and exception</text>
    <path d="M454,218 L474,218" fill="none" stroke="#8C8C8C" stroke-width="2" marker-end="url(#arrow)"/>
<path d="M850,218 L870,218" fill="none" stroke="#8C8C8C" stroke-width="2" marker-end="url(#arrow)"/>
<path d="M1060,269 L1060,292 L268,292 L268,320" fill="none" stroke="#8C8C8C" stroke-width="2" marker-end="url(#arrow)"/>
<path d="M454,376 L474,376" fill="none" stroke="#8C8C8C" stroke-width="2" marker-end="url(#arrow)"/>
<path d="M850,376 L870,376" fill="none" stroke="#8C8C8C" stroke-width="2" marker-end="url(#arrow)"/>
<path d="M1060,269 L1060,292 L268,292 L268,478" fill="none" stroke="#8C8C8C" stroke-width="2" marker-end="url(#arrow)"/>
<path d="M268,585 L268,608 L664,608 L664,320" fill="none" stroke="#8C8C8C" stroke-width="2" marker-end="url(#arrow)"/>
    
        <rect x="88" y="172" width="360" height="92" rx="4" fill="#FFFFFF" stroke="#BFBFBF"/>
        <rect x="102" y="192" width="20" height="20" rx="2" fill="#FFFFFF" stroke="#5F6368"/>
        <text x="132" y="206" font-size="14" font-weight="800" fill="#5F6368" font-family="Arial Narrow, Arial, sans-serif">STEP 01</text>
        <text class="" x="104" y="236" text-anchor="start" font-size="18" font-weight="700" fill="#111111" font-family="Arial Narrow, Arial, sans-serif">Business requirement</text>
      

        <rect x="484" y="172" width="360" height="92" rx="4" fill="#FFFFFF" stroke="#BFBFBF"/>
        <rect x="498" y="192" width="20" height="20" rx="2" fill="#FFFFFF" stroke="#5F6368"/>
        <text x="528" y="206" font-size="14" font-weight="800" fill="#5F6368" font-family="Arial Narrow, Arial, sans-serif">STEP 02</text>
        <text class="" x="500" y="236" text-anchor="start" font-size="18" font-weight="700" fill="#111111" font-family="Arial Narrow, Arial, sans-serif">Product requirement</text>
      

        <rect x="880" y="172" width="360" height="92" rx="4" fill="#FFFFFF" stroke="#BFBFBF"/>
        <rect x="894" y="192" width="20" height="20" rx="2" fill="#FFFFFF" stroke="#5F6368"/>
        <text x="924" y="206" font-size="14" font-weight="800" fill="#5F6368" font-family="Arial Narrow, Arial, sans-serif">STEP 03</text>
        <text class="" x="896" y="236" text-anchor="start" font-size="18" font-weight="700" fill="#111111" font-family="Arial Narrow, Arial, sans-serif">Technical requirement</text>
      

        <rect x="88" y="330" width="360" height="92" rx="4" fill="#FFFFFF" stroke="#BFBFBF"/>
        <rect x="102" y="350" width="20" height="20" rx="2" fill="#FFFFFF" stroke="#5F6368"/>
        <text x="132" y="364" font-size="14" font-weight="800" fill="#5F6368" font-family="Arial Narrow, Arial, sans-serif">STEP 04</text>
        <text class="" x="104" y="394" text-anchor="start" font-size="18" font-weight="700" fill="#111111" font-family="Arial Narrow, Arial, sans-serif">Test case</text>
      

        <rect x="484" y="330" width="360" height="92" rx="4" fill="#FFFFFF" stroke="#BFBFBF"/>
        <rect x="498" y="350" width="20" height="20" rx="2" fill="#FFFFFF" stroke="#5F6368"/>
        <text x="528" y="364" font-size="14" font-weight="800" fill="#5F6368" font-family="Arial Narrow, Arial, sans-serif">STEP 05</text>
        <text class="" x="500" y="394" text-anchor="start" font-size="18" font-weight="700" fill="#111111" font-family="Arial Narrow, Arial, sans-serif">UAT evidence</text>
      

        <rect x="880" y="330" width="360" height="92" rx="4" fill="#FFFFFF" stroke="#BFBFBF"/>
        <rect x="894" y="350" width="20" height="20" rx="2" fill="#FFFFFF" stroke="#5F6368"/>
        <text x="924" y="364" font-size="14" font-weight="800" fill="#5F6368" font-family="Arial Narrow, Arial, sans-serif">STEP 06</text>
        <text class="" x="896" y="394" text-anchor="start" font-size="18" font-weight="700" fill="#111111" font-family="Arial Narrow, Arial, sans-serif">Launch decision</text>
      

        <rect x="88" y="488" width="360" height="92" rx="4" fill="#FFFFFF" stroke="#BFBFBF"/>
        <rect x="102" y="508" width="20" height="20" rx="2" fill="#FFFFFF" stroke="#5F6368"/>
        <text x="132" y="522" font-size="14" font-weight="800" fill="#5F6368" font-family="Arial Narrow, Arial, sans-serif">STEP 07</text>
        <text class="" x="104" y="552" text-anchor="start" font-size="18" font-weight="700" fill="#111111" font-family="Arial Narrow, Arial, sans-serif">Security or compliance control</text>
      
</svg>