<?xml version="1.0" encoding="UTF-8"?>
<svg xmlns="http://www.w3.org/2000/svg" width="1500" height="860" viewBox="0 0 1500 860">
  <defs>
    <marker id="arrow" markerWidth="10" markerHeight="10" refX="9" refY="5" orient="auto">
      <path d="M2,2 L9,5 L2,8 Z" fill="#5F6368"/>
    </marker>
  </defs>
  <rect width="100%" height="100%" fill="#FFFFFF"/>
  <rect x="24" y="24" width="1452" height="812" rx="8" fill="#FFFFFF" stroke="#D9D9D9"/>
  
    <text x="72" y="84" font-size="34" font-weight="800" fill="#000000" font-family="Arial Narrow, Arial, sans-serif">High-Level System Architecture</text>
    <text x="72" y="115" font-size="18" fill="#5F6368" font-family="Arial Narrow, Arial, sans-serif">Layered view of client surfaces, application services, domain modules, data and external systems</text>
    <line x1="327" y1="438" x2="339" y2="438" stroke="#8C8C8C" stroke-width="2" marker-end="url(#arrow)"/>
        <rect x="72" y="148" width="250" height="580" rx="6" fill="#FFFFFF" stroke="#D9D9D9"/>
        <rect x="72" y="148" width="250" height="58" rx="6" fill="#F2F2F2"/>
        <text x="94" y="186" font-size="20" font-weight="800" fill="#000000" font-family="Arial Narrow, Arial, sans-serif">Client Layer</text>
        <rect x="94" y="209" width="206" height="29" rx="3" fill="#F7F7F7" stroke="#D9D9D9"/>
            <text class="" x="106" y="229" text-anchor="start" font-size="15" font-weight="600" fill="#111111" font-family="Arial Narrow, Arial, sans-serif">Next.js Web App</text>
<rect x="94" y="247" width="206" height="29" rx="3" fill="#F7F7F7" stroke="#D9D9D9"/>
            <text class="" x="106" y="267" text-anchor="start" font-size="15" font-weight="600" fill="#111111" font-family="Arial Narrow, Arial, sans-serif">Installable PWA</text>
<rect x="94" y="285" width="206" height="29" rx="3" fill="#F7F7F7" stroke="#D9D9D9"/>
            <text class="" x="106" y="305" text-anchor="start" font-size="15" font-weight="600" fill="#111111" font-family="Arial Narrow, Arial, sans-serif">Staff Mobile Web</text>
<rect x="94" y="323" width="206" height="29" rx="3" fill="#F7F7F7" stroke="#D9D9D9"/>
            <text class="" x="106" y="343" text-anchor="start" font-size="15" font-weight="600" fill="#111111" font-family="Arial Narrow, Arial, sans-serif">Resident Mobile Web</text>
<line x1="602" y1="438" x2="614" y2="438" stroke="#8C8C8C" stroke-width="2" marker-end="url(#arrow)"/>
        <rect x="347" y="148" width="250" height="580" rx="6" fill="#FFFFFF" stroke="#D9D9D9"/>
        <rect x="347" y="148" width="250" height="58" rx="6" fill="#F2F2F2"/>
        <text x="369" y="186" font-size="20" font-weight="800" fill="#000000" font-family="Arial Narrow, Arial, sans-serif">Application Layer</text>
        <rect x="369" y="209" width="206" height="29" rx="3" fill="#F7F7F7" stroke="#D9D9D9"/>
            <text class="" x="381" y="229" text-anchor="start" font-size="15" font-weight="600" fill="#111111" font-family="Arial Narrow, Arial, sans-serif">Next.js App Router</text>
<rect x="369" y="247" width="206" height="29" rx="3" fill="#F7F7F7" stroke="#D9D9D9"/>
            <text class="" x="381" y="267" text-anchor="start" font-size="15" font-weight="600" fill="#111111" font-family="Arial Narrow, Arial, sans-serif">Server Actions</text>
<rect x="369" y="285" width="206" height="29" rx="3" fill="#F7F7F7" stroke="#D9D9D9"/>
            <text class="" x="381" y="305" text-anchor="start" font-size="15" font-weight="600" fill="#111111" font-family="Arial Narrow, Arial, sans-serif">API Routes</text>
<rect x="369" y="323" width="206" height="29" rx="3" fill="#F7F7F7" stroke="#D9D9D9"/>
            <text class="" x="381" y="343" text-anchor="start" font-size="15" font-weight="600" fill="#111111" font-family="Arial Narrow, Arial, sans-serif">next-intl</text>
<rect x="369" y="361" width="206" height="29" rx="3" fill="#F7F7F7" stroke="#D9D9D9"/>
            <text class="" x="381" y="381" text-anchor="start" font-size="15" font-weight="600" fill="#111111" font-family="Arial Narrow, Arial, sans-serif">Design System Components</text>
<line x1="877" y1="438" x2="889" y2="438" stroke="#8C8C8C" stroke-width="2" marker-end="url(#arrow)"/>
        <rect x="622" y="148" width="250" height="580" rx="6" fill="#FFFFFF" stroke="#D9D9D9"/>
        <rect x="622" y="148" width="250" height="58" rx="6" fill="#F2F2F2"/>
        <text x="644" y="186" font-size="20" font-weight="800" fill="#000000" font-family="Arial Narrow, Arial, sans-serif">Domain Modules</text>
        <rect x="644" y="209" width="206" height="29" rx="3" fill="#F7F7F7" stroke="#D9D9D9"/>
            <text class="" x="656" y="229" text-anchor="start" font-size="15" font-weight="600" fill="#111111" font-family="Arial Narrow, Arial, sans-serif">Core Site Module</text>
<rect x="644" y="247" width="206" height="29" rx="3" fill="#F7F7F7" stroke="#D9D9D9"/>
            <text class="" x="656" y="267" text-anchor="start" font-size="15" font-weight="600" fill="#111111" font-family="Arial Narrow, Arial, sans-serif">User/RBAC Module</text>
<rect x="644" y="285" width="206" height="29" rx="3" fill="#F7F7F7" stroke="#D9D9D9"/>
            <text class="" x="656" y="305" text-anchor="start" font-size="15" font-weight="600" fill="#111111" font-family="Arial Narrow, Arial, sans-serif">Finance Ledger Module</text>
<rect x="644" y="323" width="206" height="29" rx="3" fill="#F7F7F7" stroke="#D9D9D9"/>
            <text class="" x="656" y="343" text-anchor="start" font-size="15" font-weight="600" fill="#111111" font-family="Arial Narrow, Arial, sans-serif">Payment/Deposit Module</text>
<rect x="644" y="361" width="206" height="29" rx="3" fill="#F7F7F7" stroke="#D9D9D9"/>
            <text class="" x="656" y="381" text-anchor="start" font-size="15" font-weight="600" fill="#111111" font-family="Arial Narrow, Arial, sans-serif">Service Desk/Ticket</text>
<text class="" x="656" y="400" text-anchor="start" font-size="15" font-weight="600" fill="#111111" font-family="Arial Narrow, Arial, sans-serif">Module</text>
<rect x="644" y="399" width="206" height="29" rx="3" fill="#F7F7F7" stroke="#D9D9D9"/>
            <text class="" x="656" y="419" text-anchor="start" font-size="15" font-weight="600" fill="#111111" font-family="Arial Narrow, Arial, sans-serif">Booking/Move-In/Checkout</text>
<text class="" x="656" y="438" text-anchor="start" font-size="15" font-weight="600" fill="#111111" font-family="Arial Narrow, Arial, sans-serif">Module</text>
<rect x="644" y="437" width="206" height="29" rx="3" fill="#F7F7F7" stroke="#D9D9D9"/>
            <text class="" x="656" y="457" text-anchor="start" font-size="15" font-weight="600" fill="#111111" font-family="Arial Narrow, Arial, sans-serif">Communication Module</text>
<rect x="644" y="475" width="206" height="29" rx="3" fill="#F7F7F7" stroke="#D9D9D9"/>
            <text class="" x="656" y="495" text-anchor="start" font-size="15" font-weight="600" fill="#111111" font-family="Arial Narrow, Arial, sans-serif">Reporting Module</text>
<rect x="644" y="513" width="206" height="29" rx="3" fill="#F7F7F7" stroke="#D9D9D9"/>
            <text class="" x="656" y="533" text-anchor="start" font-size="15" font-weight="600" fill="#111111" font-family="Arial Narrow, Arial, sans-serif">AI Operations Module</text>
<rect x="644" y="551" width="206" height="29" rx="3" fill="#F7F7F7" stroke="#D9D9D9"/>
            <text class="" x="656" y="571" text-anchor="start" font-size="15" font-weight="600" fill="#111111" font-family="Arial Narrow, Arial, sans-serif">Integration Adapter</text>
<text class="" x="656" y="590" text-anchor="start" font-size="15" font-weight="600" fill="#111111" font-family="Arial Narrow, Arial, sans-serif">Module</text>
<rect x="644" y="589" width="206" height="29" rx="3" fill="#F7F7F7" stroke="#D9D9D9"/>
            <text class="" x="656" y="609" text-anchor="start" font-size="15" font-weight="600" fill="#111111" font-family="Arial Narrow, Arial, sans-serif">Audit Module</text>
<line x1="1152" y1="438" x2="1164" y2="438" stroke="#8C8C8C" stroke-width="2" marker-end="url(#arrow)"/>
        <rect x="897" y="148" width="250" height="580" rx="6" fill="#FFFFFF" stroke="#D9D9D9"/>
        <rect x="897" y="148" width="250" height="58" rx="6" fill="#F2F2F2"/>
        <text x="919" y="186" font-size="20" font-weight="800" fill="#000000" font-family="Arial Narrow, Arial, sans-serif">Data Layer</text>
        <rect x="919" y="209" width="206" height="29" rx="3" fill="#F7F7F7" stroke="#D9D9D9"/>
            <text class="" x="931" y="229" text-anchor="start" font-size="15" font-weight="600" fill="#111111" font-family="Arial Narrow, Arial, sans-serif">Supabase PostgreSQL</text>
<rect x="919" y="247" width="206" height="29" rx="3" fill="#F7F7F7" stroke="#D9D9D9"/>
            <text class="" x="931" y="267" text-anchor="start" font-size="15" font-weight="600" fill="#111111" font-family="Arial Narrow, Arial, sans-serif">Row Level Security</text>
<rect x="919" y="285" width="206" height="29" rx="3" fill="#F7F7F7" stroke="#D9D9D9"/>
            <text class="" x="931" y="305" text-anchor="start" font-size="15" font-weight="600" fill="#111111" font-family="Arial Narrow, Arial, sans-serif">Supabase Storage / S3</text>
<rect x="919" y="323" width="206" height="29" rx="3" fill="#F7F7F7" stroke="#D9D9D9"/>
            <text class="" x="931" y="343" text-anchor="start" font-size="15" font-weight="600" fill="#111111" font-family="Arial Narrow, Arial, sans-serif">Supabase Realtime</text>
<rect x="919" y="361" width="206" height="29" rx="3" fill="#F7F7F7" stroke="#D9D9D9"/>
            <text class="" x="931" y="381" text-anchor="start" font-size="15" font-weight="600" fill="#111111" font-family="Arial Narrow, Arial, sans-serif">pgvector</text>

        <rect x="1172" y="148" width="250" height="580" rx="6" fill="#FFFFFF" stroke="#D9D9D9"/>
        <rect x="1172" y="148" width="250" height="58" rx="6" fill="#F2F2F2"/>
        <text x="1194" y="186" font-size="20" font-weight="800" fill="#000000" font-family="Arial Narrow, Arial, sans-serif">External Systems</text>
        <rect x="1194" y="209" width="206" height="29" rx="3" fill="#F7F7F7" stroke="#D9D9D9"/>
            <text class="" x="1206" y="229" text-anchor="start" font-size="15" font-weight="600" fill="#111111" font-family="Arial Narrow, Arial, sans-serif">Banks / Payment</text>
<text class="" x="1206" y="248" text-anchor="start" font-size="15" font-weight="600" fill="#111111" font-family="Arial Narrow, Arial, sans-serif">Providers</text>
<rect x="1194" y="247" width="206" height="29" rx="3" fill="#F7F7F7" stroke="#D9D9D9"/>
            <text class="" x="1206" y="267" text-anchor="start" font-size="15" font-weight="600" fill="#111111" font-family="Arial Narrow, Arial, sans-serif">SMS Provider</text>
<rect x="1194" y="285" width="206" height="29" rx="3" fill="#F7F7F7" stroke="#D9D9D9"/>
            <text class="" x="1206" y="305" text-anchor="start" font-size="15" font-weight="600" fill="#111111" font-family="Arial Narrow, Arial, sans-serif">Email Provider</text>
<rect x="1194" y="323" width="206" height="29" rx="3" fill="#F7F7F7" stroke="#D9D9D9"/>
            <text class="" x="1206" y="343" text-anchor="start" font-size="15" font-weight="600" fill="#111111" font-family="Arial Narrow, Arial, sans-serif">Push Provider</text>
<rect x="1194" y="361" width="206" height="29" rx="3" fill="#F7F7F7" stroke="#D9D9D9"/>
            <text class="" x="1206" y="381" text-anchor="start" font-size="15" font-weight="600" fill="#111111" font-family="Arial Narrow, Arial, sans-serif">Cards / Barriers</text>
<rect x="1194" y="399" width="206" height="29" rx="3" fill="#F7F7F7" stroke="#D9D9D9"/>
            <text class="" x="1206" y="419" text-anchor="start" font-size="15" font-weight="600" fill="#111111" font-family="Arial Narrow, Arial, sans-serif">Identity Verification</text>
<rect x="1194" y="437" width="206" height="29" rx="3" fill="#F7F7F7" stroke="#D9D9D9"/>
            <text class="" x="1206" y="457" text-anchor="start" font-size="15" font-weight="600" fill="#111111" font-family="Arial Narrow, Arial, sans-serif">Camera Systems</text>
<rect x="1194" y="475" width="206" height="29" rx="3" fill="#F7F7F7" stroke="#D9D9D9"/>
            <text class="" x="1206" y="495" text-anchor="start" font-size="15" font-weight="600" fill="#111111" font-family="Arial Narrow, Arial, sans-serif">Meter/Billing Systems</text>
</svg>