<?xml version="1.0" encoding="UTF-8"?>
<svg xmlns="http://www.w3.org/2000/svg" width="1320" height="928" viewBox="0 0 1320 928">
  <defs>
    <marker id="arrow" markerWidth="10" markerHeight="10" refX="9" refY="5" orient="auto">
      <path d="M2,2 L9,5 L2,8 Z" fill="#5F6368"/>
    </marker>
  </defs>
  <rect width="100%" height="100%" fill="#FFFFFF"/>
  <rect x="24" y="24" width="1272" height="880" rx="8" fill="#FFFFFF" stroke="#D9D9D9"/>
  
    <text x="78" y="84" font-size="34" font-weight="800" fill="#000000" font-family="Arial Narrow, Arial, sans-serif">Payment Flow</text>
    <text x="78" y="115" font-size="18" fill="#5F6368" font-family="Arial Narrow, Arial, sans-serif">Integration sequence with payment, ledger posting and audit boundary</text>
    <rect x="26" y="145" width="144" height="46" rx="4" fill="#F2F2F2" stroke="#BFBFBF"/>
        <text class="" x="98" y="174" text-anchor="middle" font-size="15" font-weight="800" fill="#000000" font-family="Arial Narrow, Arial, sans-serif">User</text>
        <line x1="98" y1="191" x2="98" y2="858" stroke="#D9D9D9" stroke-width="2" stroke-dasharray="8 8"/>
<rect x="250.8" y="145" width="144" height="46" rx="4" fill="#F2F2F2" stroke="#BFBFBF"/>
        <text class="" x="322.8" y="174" text-anchor="middle" font-size="15" font-weight="800" fill="#000000" font-family="Arial Narrow, Arial, sans-serif">WebApp</text>
        <line x1="322.8" y1="191" x2="322.8" y2="858" stroke="#D9D9D9" stroke-width="2" stroke-dasharray="8 8"/>
<rect x="475.6" y="145" width="144" height="46" rx="4" fill="#F2F2F2" stroke="#BFBFBF"/>
        <text class="" x="547.6" y="174" text-anchor="middle" font-size="15" font-weight="800" fill="#000000" font-family="Arial Narrow, Arial, sans-serif">PaymentModule</text>
        <line x1="547.6" y1="191" x2="547.6" y2="858" stroke="#D9D9D9" stroke-width="2" stroke-dasharray="8 8"/>
<rect x="700.4000000000001" y="145" width="144" height="46" rx="4" fill="#F2F2F2" stroke="#BFBFBF"/>
        <text class="" x="772.4000000000001" y="174" text-anchor="middle" font-size="15" font-weight="800" fill="#000000" font-family="Arial Narrow, Arial, sans-serif">Provider</text>
        <line x1="772.4000000000001" y1="191" x2="772.4000000000001" y2="858" stroke="#D9D9D9" stroke-width="2" stroke-dasharray="8 8"/>
<rect x="925.2" y="145" width="144" height="46" rx="4" fill="#F2F2F2" stroke="#BFBFBF"/>
        <text class="" x="997.2" y="174" text-anchor="middle" font-size="15" font-weight="800" fill="#000000" font-family="Arial Narrow, Arial, sans-serif">Ledger</text>
        <line x1="997.2" y1="191" x2="997.2" y2="858" stroke="#D9D9D9" stroke-width="2" stroke-dasharray="8 8"/>
<rect x="1150" y="145" width="144" height="46" rx="4" fill="#F2F2F2" stroke="#BFBFBF"/>
        <text class="" x="1222" y="174" text-anchor="middle" font-size="15" font-weight="800" fill="#000000" font-family="Arial Narrow, Arial, sans-serif">Audit</text>
        <line x1="1222" y1="191" x2="1222" y2="858" stroke="#D9D9D9" stroke-width="2" stroke-dasharray="8 8"/>
    <line x1="108" y1="235" x2="310.8" y2="235" stroke="#8C8C8C" stroke-width="3" marker-end="url(#arrow)"/>
        <rect x="95.4" y="203" width="230" height="25" rx="3" fill="#FFFFFF" stroke="#D9D9D9"/>
        <text class="" x="210.4" y="221" text-anchor="middle" font-size="13" font-weight="650" fill="#111111" font-family="Arial Narrow, Arial, sans-serif">Start payment</text>
<line x1="332.8" y1="289" x2="535.6" y2="289" stroke="#8C8C8C" stroke-width="3" marker-end="url(#arrow)"/>
        <rect x="320.20000000000005" y="257" width="230" height="25" rx="3" fill="#FFFFFF" stroke="#D9D9D9"/>
        <text class="" x="435.20000000000005" y="275" text-anchor="middle" font-size="13" font-weight="650" fill="#111111" font-family="Arial Narrow, Arial, sans-serif">Create payment intent</text>
<line x1="557.6" y1="343" x2="760.4000000000001" y2="343" stroke="#8C8C8C" stroke-width="3" marker-end="url(#arrow)"/>
        <rect x="545" y="311" width="230" height="25" rx="3" fill="#FFFFFF" stroke="#D9D9D9"/>
        <text class="" x="660" y="329" text-anchor="middle" font-size="13" font-weight="650" fill="#111111" font-family="Arial Narrow, Arial, sans-serif">Create provider payment</text>
<line x1="762.4000000000001" y1="397" x2="559.6" y2="397" stroke="#8C8C8C" stroke-width="3" marker-end="url(#arrow)"/>
        <rect x="545" y="365" width="230" height="25" rx="3" fill="#FFFFFF" stroke="#D9D9D9"/>
        <text class="" x="660" y="383" text-anchor="middle" font-size="13" font-weight="650" fill="#111111" font-family="Arial Narrow, Arial, sans-serif">Provider reference</text>
<line x1="537.6" y1="451" x2="334.8" y2="451" stroke="#8C8C8C" stroke-width="3" marker-end="url(#arrow)"/>
        <rect x="320.20000000000005" y="419" width="230" height="25" rx="3" fill="#FFFFFF" stroke="#D9D9D9"/>
        <text class="" x="435.20000000000005" y="437" text-anchor="middle" font-size="13" font-weight="650" fill="#111111" font-family="Arial Narrow, Arial, sans-serif">Payment URL/reference</text>
<line x1="108" y1="505" x2="760.4000000000001" y2="505" stroke="#8C8C8C" stroke-width="3" marker-end="url(#arrow)"/>
        <rect x="320.20000000000005" y="473" width="230" height="25" rx="3" fill="#FFFFFF" stroke="#D9D9D9"/>
        <text class="" x="435.20000000000005" y="491" text-anchor="middle" font-size="13" font-weight="650" fill="#111111" font-family="Arial Narrow, Arial, sans-serif">Complete payment</text>
<line x1="762.4000000000001" y1="559" x2="559.6" y2="559" stroke="#8C8C8C" stroke-width="3" marker-end="url(#arrow)"/>
        <rect x="545" y="527" width="230" height="25" rx="3" fill="#FFFFFF" stroke="#D9D9D9"/>
        <text class="" x="660" y="545" text-anchor="middle" font-size="13" font-weight="650" fill="#111111" font-family="Arial Narrow, Arial, sans-serif">Webhook event</text>
<line x1="557.6" y1="613" x2="535.6" y2="613" stroke="#8C8C8C" stroke-width="3" marker-end="url(#arrow)"/>
        <rect x="432.6" y="581" width="230" height="25" rx="3" fill="#FFFFFF" stroke="#D9D9D9"/>
        <text class="" x="547.6" y="599" text-anchor="middle" font-size="13" font-weight="650" fill="#111111" font-family="Arial Narrow, Arial, sans-serif">Verify signature and</text>
<text class="" x="547.6" y="615" text-anchor="middle" font-size="13" font-weight="650" fill="#111111" font-family="Arial Narrow, Arial, sans-serif">idempotency</text>
<line x1="557.6" y1="667" x2="985.2" y2="667" stroke="#8C8C8C" stroke-width="3" marker-end="url(#arrow)"/>
        <rect x="657.4000000000001" y="635" width="230" height="25" rx="3" fill="#FFFFFF" stroke="#D9D9D9"/>
        <text class="" x="772.4000000000001" y="653" text-anchor="middle" font-size="13" font-weight="650" fill="#111111" font-family="Arial Narrow, Arial, sans-serif">Post payment journal entry</text>
<line x1="987.2" y1="721" x2="559.6" y2="721" stroke="#404040" stroke-width="3" marker-end="url(#arrow)"/>
        <rect x="657.4000000000001" y="689" width="230" height="25" rx="3" fill="#FFFFFF" stroke="#D9D9D9"/>
        <text class="" x="772.4000000000001" y="707" text-anchor="middle" font-size="13" font-weight="650" fill="#111111" font-family="Arial Narrow, Arial, sans-serif">Posted</text>
<line x1="557.6" y1="775" x2="1210" y2="775" stroke="#404040" stroke-width="3" marker-end="url(#arrow)"/>
        <rect x="769.8" y="743" width="230" height="25" rx="3" fill="#FFFFFF" stroke="#D9D9D9"/>
        <text class="" x="884.8" y="761" text-anchor="middle" font-size="13" font-weight="650" fill="#111111" font-family="Arial Narrow, Arial, sans-serif">Write audit log</text>
<line x1="537.6" y1="829" x2="334.8" y2="829" stroke="#8C8C8C" stroke-width="3" marker-end="url(#arrow)"/>
        <rect x="320.20000000000005" y="797" width="230" height="25" rx="3" fill="#FFFFFF" stroke="#D9D9D9"/>
        <text class="" x="435.20000000000005" y="815" text-anchor="middle" font-size="13" font-weight="650" fill="#111111" font-family="Arial Narrow, Arial, sans-serif">Updated payment status</text>
</svg>