<?xml version="1.0" encoding="UTF-8"?>
<svg xmlns="http://www.w3.org/2000/svg" width="1380" height="790" viewBox="0 0 1380 790">
  <defs>
    <marker id="arrow" markerWidth="10" markerHeight="10" refX="9" refY="5" orient="auto">
      <path d="M2,2 L9,5 L2,8 Z" fill="#5F6368"/>
    </marker>
  </defs>
  <rect width="100%" height="100%" fill="#FFFFFF"/>
  <rect x="24" y="24" width="1332" height="742" rx="8" fill="#FFFFFF" stroke="#D9D9D9"/>
  
    <text x="78" y="84" font-size="34" font-weight="800" fill="#000000" font-family="Arial Narrow, Arial, sans-serif">Data Model Overview</text>
    <text x="78" y="115" font-size="18" fill="#5F6368" font-family="Arial Narrow, Arial, sans-serif">Entity relationship model grouped into the main delivery domains</text>
    <rect x="78" y="148" width="390" height="205" rx="6" fill="#FFFFFF" stroke="#D9D9D9"/>
        <rect x="78" y="148" width="390" height="48" rx="6" fill="#F2F2F2"/>
        <text x="102" y="180" font-size="20" font-weight="800" fill="#000000" font-family="Arial Narrow, Arial, sans-serif">Core Site</text>
        <text x="108" y="222" font-size="17" font-weight="650" fill="#1F2937">sites</text>
<text x="108" y="250" font-size="17" font-weight="650" fill="#1F2937">blocks</text>
<text x="108" y="278" font-size="17" font-weight="650" fill="#1F2937">flats</text>
<text x="108" y="306" font-size="17" font-weight="650" fill="#1F2937">occupancies</text>
<rect x="518" y="148" width="390" height="205" rx="6" fill="#FFFFFF" stroke="#D9D9D9"/>
        <rect x="518" y="148" width="390" height="48" rx="6" fill="#F2F2F2"/>
        <text x="542" y="180" font-size="20" font-weight="800" fill="#000000" font-family="Arial Narrow, Arial, sans-serif">People &amp; Access</text>
        <text x="548" y="222" font-size="17" font-weight="650" fill="#1F2937">profiles</text>
<text x="548" y="250" font-size="17" font-weight="650" fill="#1F2937">documents</text>
<text x="548" y="278" font-size="17" font-weight="650" fill="#1F2937">document_permissions</text>
<rect x="958" y="148" width="390" height="205" rx="6" fill="#FFFFFF" stroke="#D9D9D9"/>
        <rect x="958" y="148" width="390" height="48" rx="6" fill="#F2F2F2"/>
        <text x="982" y="180" font-size="20" font-weight="800" fill="#000000" font-family="Arial Narrow, Arial, sans-serif">Finance</text>
        <text x="988" y="222" font-size="17" font-weight="650" fill="#1F2937">accounts</text>
<text x="988" y="250" font-size="17" font-weight="650" fill="#1F2937">journal_entries</text>
<text x="988" y="278" font-size="17" font-weight="650" fill="#1F2937">journal_lines</text>
<text x="988" y="306" font-size="17" font-weight="650" fill="#1F2937">deposits</text>
<rect x="78" y="395" width="390" height="205" rx="6" fill="#FFFFFF" stroke="#D9D9D9"/>
        <rect x="78" y="395" width="390" height="48" rx="6" fill="#F2F2F2"/>
        <text x="102" y="427" font-size="20" font-weight="800" fill="#000000" font-family="Arial Narrow, Arial, sans-serif">Operations</text>
        <text x="108" y="469" font-size="17" font-weight="650" fill="#1F2937">service_catalog</text>
<text x="108" y="497" font-size="17" font-weight="650" fill="#1F2937">service_orders</text>
<text x="108" y="525" font-size="17" font-weight="650" fill="#1F2937">tickets</text>
<text x="108" y="553" font-size="17" font-weight="650" fill="#1F2937">ticket_events</text>
<text x="108" y="581" font-size="17" font-weight="650" fill="#1F2937">media_reports</text>
<text x="108" y="609" font-size="17" font-weight="650" fill="#1F2937">bookings</text>
<text x="108" y="637" font-size="17" font-weight="650" fill="#1F2937">checkout_inspections</text>
<rect x="518" y="395" width="390" height="205" rx="6" fill="#FFFFFF" stroke="#D9D9D9"/>
        <rect x="518" y="395" width="390" height="48" rx="6" fill="#F2F2F2"/>
        <text x="542" y="427" font-size="20" font-weight="800" fill="#000000" font-family="Arial Narrow, Arial, sans-serif">Comms &amp; Integrations</text>
        <text x="548" y="469" font-size="17" font-weight="650" fill="#1F2937">message_threads</text>
<text x="548" y="497" font-size="17" font-weight="650" fill="#1F2937">messages</text>
<text x="548" y="525" font-size="17" font-weight="650" fill="#1F2937">integration_connections</text>
<text x="548" y="553" font-size="17" font-weight="650" fill="#1F2937">integration_events</text>
<rect x="958" y="395" width="390" height="205" rx="6" fill="#FFFFFF" stroke="#D9D9D9"/>
        <rect x="958" y="395" width="390" height="48" rx="6" fill="#F2F2F2"/>
        <text x="982" y="427" font-size="20" font-weight="800" fill="#000000" font-family="Arial Narrow, Arial, sans-serif">AI &amp; Audit</text>
        <text x="988" y="469" font-size="17" font-weight="650" fill="#1F2937">ai_events</text>
<text x="988" y="497" font-size="17" font-weight="650" fill="#1F2937">ai_recommendations</text>
<text x="988" y="525" font-size="17" font-weight="650" fill="#1F2937">audit_logs</text>
</svg>