<?xml version="1.0" encoding="UTF-8"?>
<svg xmlns="http://www.w3.org/2000/svg" width="1360" height="600" viewBox="0 0 1360 600">
  <defs>
    <marker id="arrow" markerWidth="10" markerHeight="10" refX="9" refY="5" orient="auto">
      <path d="M2,2 L9,5 L2,8 Z" fill="#5F6368"/>
    </marker>
  </defs>
  <rect width="100%" height="100%" fill="#FFFFFF"/>
  <rect x="24" y="24" width="1312" height="552" rx="8" fill="#FFFFFF" stroke="#D9D9D9"/>
  
    <text x="78" y="84" font-size="34" font-weight="800" fill="#000000" font-family="Arial Narrow, Arial, sans-serif">Ticket Lifecycle</text>
    <text x="78" y="115" font-size="18" fill="#5F6368" font-family="Arial Narrow, Arial, sans-serif">Main ticket lifecycle with exception states separated for operational clarity</text>
    <text x="78" y="195" font-size="19" font-weight="700" fill="#404040" font-family="Arial Narrow, Arial, sans-serif">Primary path</text>
    <line x1="237" y1="287" x2="253" y2="287" stroke="#8C8C8C" stroke-width="2" marker-end="url(#arrow)"/><rect x="78" y="245" width="155" height="84" rx="4" fill="#FFFFFF" stroke="#D9D9D9"/>
        <text class="" x="155.5" y="295" text-anchor="middle" font-size="18" font-weight="800" fill="#000000" font-family="Arial Narrow, Arial, sans-serif">New</text>
<line x1="420" y1="287" x2="436" y2="287" stroke="#8C8C8C" stroke-width="2" marker-end="url(#arrow)"/><rect x="261" y="245" width="155" height="84" rx="4" fill="#FFFFFF" stroke="#D9D9D9"/>
        <text class="" x="338.5" y="295" text-anchor="middle" font-size="18" font-weight="800" fill="#000000" font-family="Arial Narrow, Arial, sans-serif">Triage</text>
<line x1="603" y1="287" x2="619" y2="287" stroke="#8C8C8C" stroke-width="2" marker-end="url(#arrow)"/><rect x="444" y="245" width="155" height="84" rx="4" fill="#FFFFFF" stroke="#D9D9D9"/>
        <text class="" x="521.5" y="295" text-anchor="middle" font-size="18" font-weight="800" fill="#000000" font-family="Arial Narrow, Arial, sans-serif">Assigned</text>
<line x1="786" y1="287" x2="802" y2="287" stroke="#8C8C8C" stroke-width="2" marker-end="url(#arrow)"/><rect x="627" y="245" width="155" height="84" rx="4" fill="#FFFFFF" stroke="#D9D9D9"/>
        <text class="" x="704.5" y="295" text-anchor="middle" font-size="18" font-weight="800" fill="#000000" font-family="Arial Narrow, Arial, sans-serif">In Progress</text>
<line x1="969" y1="287" x2="985" y2="287" stroke="#8C8C8C" stroke-width="2" marker-end="url(#arrow)"/><rect x="810" y="245" width="155" height="84" rx="4" fill="#FFFFFF" stroke="#D9D9D9"/>
        <text class="" x="887.5" y="295" text-anchor="middle" font-size="18" font-weight="800" fill="#000000" font-family="Arial Narrow, Arial, sans-serif">Manager Review</text>
<line x1="1152" y1="287" x2="1168" y2="287" stroke="#8C8C8C" stroke-width="2" marker-end="url(#arrow)"/><rect x="993" y="245" width="155" height="84" rx="4" fill="#FFFFFF" stroke="#D9D9D9"/>
        <text class="" x="1070.5" y="295" text-anchor="middle" font-size="18" font-weight="800" fill="#000000" font-family="Arial Narrow, Arial, sans-serif">Completed</text>
<rect x="1176" y="245" width="155" height="84" rx="4" fill="#FFFFFF" stroke="#D9D9D9"/>
        <text class="" x="1253.5" y="295" text-anchor="middle" font-size="18" font-weight="800" fill="#000000" font-family="Arial Narrow, Arial, sans-serif">Closed</text>
    <text x="78" y="385" font-size="19" font-weight="700" fill="#404040" font-family="Arial Narrow, Arial, sans-serif">Exception and wait states</text>
    <rect x="168" y="405" width="175" height="64" rx="4" fill="#F2F2F2" stroke="#8C8C8C"/>
        <text class="" x="255" y="444" text-anchor="middle" font-size="16" font-weight="750" fill="#000000" font-family="Arial Narrow, Arial, sans-serif">Waiting For</text>
<text class="" x="255" y="464" text-anchor="middle" font-size="16" font-weight="750" fill="#000000" font-family="Arial Narrow, Arial, sans-serif">Payment</text>
<rect x="373" y="405" width="175" height="64" rx="4" fill="#F2F2F2" stroke="#8C8C8C"/>
        <text class="" x="460" y="444" text-anchor="middle" font-size="16" font-weight="750" fill="#000000" font-family="Arial Narrow, Arial, sans-serif">Waiting For</text>
<text class="" x="460" y="464" text-anchor="middle" font-size="16" font-weight="750" fill="#000000" font-family="Arial Narrow, Arial, sans-serif">Resident</text>
<rect x="578" y="405" width="175" height="64" rx="4" fill="#F2F2F2" stroke="#8C8C8C"/>
        <text class="" x="665" y="444" text-anchor="middle" font-size="16" font-weight="750" fill="#000000" font-family="Arial Narrow, Arial, sans-serif">Rework</text>
<rect x="783" y="405" width="175" height="64" rx="4" fill="#F2F2F2" stroke="#8C8C8C"/>
        <text class="" x="870" y="444" text-anchor="middle" font-size="16" font-weight="750" fill="#000000" font-family="Arial Narrow, Arial, sans-serif">Cancelled</text>
</svg>